<svg width="800" height="300" xmlns="http://www.w3.org/2000/svg">
 <g>
  <title>Layer 1</title>
  <g id="svg_1" stroke="null">
   <metadata stroke="null">Created by potrace 1.10, written by Peter Selinger 2001-2011</metadata>
   <g id="svg_2" transform="translate(0 477) scale(0.1 -0.1)" fill="#000000" stroke="null">
    <path id="svg_3" d="m3847.64665,4664.96925c-66.44131,-12.77718 -141.82665,-30.66522 -166.10328,-39.60924c-176.32502,-63.88588 -475.31094,-251.71036 -482.97724,-304.09678c-5.11087,-33.22066 -15.33261,-33.22066 214.65655,-14.05489c228.71145,17.88805 255.54351,21.7212 255.54351,43.4424c0,11.49946 -25.55435,20.44348 -79.21849,28.10979c-107.32828,14.05489 -112.43915,38.33153 -14.05489,84.32936c219.76742,102.21741 402.48104,136.71578 587.75008,112.43915c68.99675,-8.94402 139.27122,-24.27663 157.15926,-33.22066c17.88805,-8.94402 53.66414,-19.16576 80.49621,-22.99892c25.55435,-3.83315 62.60816,-19.16576 80.49621,-33.22066c17.88805,-14.05489 48.55327,-28.10979 68.99675,-33.22066c44.72012,-10.22174 60.05273,-26.83207 66.44131,-76.66305c3.83315,-40.88696 10.22174,-43.4424 131.60491,-68.99675c155.88154,-31.94294 159.7147,-31.94294 159.7147,0c0,34.49837 -38.33153,67.71903 -190.37992,169.93644c-265.76525,177.60274 -577.52834,245.32177 -870.12567,187.82448l0,-0.00001z" stroke="null"/>
    <path id="svg_4" d="m3291.83951,4207.54636c-209.54568,-5.11087 -223.60058,-7.66631 -223.60058,-51.1087l0,-33.22066l277.26471,10.22174c265.76525,7.66631 279.82015,10.22174 306.65222,38.33153l29.3875,28.10979l-67.71903,8.94402c-35.77609,3.83315 -86.88479,6.38859 -111.16143,5.11087c-24.27663,-1.27772 -118.82773,-5.11087 -210.8234,-6.38859l0.00001,0z" stroke="null"/>
    <path id="svg_5" d="m4698.60655,4204.99093c-21.7212,-8.94402 -19.16576,-12.77718 19.16576,-35.77609c39.60924,-24.27663 102.21741,-34.49837 273.43156,-45.99783c45.99783,-2.55544 58.77501,31.94294 24.27663,68.99675c-19.16576,21.7212 -39.60924,24.27663 -157.15926,22.99892c-74.10762,0 -146.93752,-5.11087 -159.7147,-10.22174l0.00001,-0.00001z" stroke="null"/>
    <path id="svg_6" d="m4927.318,4063.16428c-103.49512,-8.94402 -146.93752,-20.44348 -146.93752,-38.33153c0,-5.11087 10.22174,-14.05489 21.7212,-19.16576c34.49837,-12.77718 310.48537,-37.05381 319.42939,-26.83207c5.11087,3.83315 -1.27772,28.10979 -12.77718,52.38642c-15.33261,33.22066 -29.3875,44.72012 -49.83099,42.16468c-16.61033,0 -75.38534,-5.11087 -131.60491,-10.22174l0.00001,0z" stroke="null"/>
    <path id="svg_7" d="m2995.40903,4040.16536c-19.16576,-19.16576 -20.44348,-28.10979 -6.38859,-48.55327c6.38859,-11.49946 80.49621,-11.49946 292.59732,0c155.88154,7.66631 286.20874,17.88805 291.31961,22.99892c25.55435,25.55435 -63.88588,37.05381 -302.81906,39.60924c-200.60166,2.55544 -260.65438,-1.27772 -274.70928,-14.05489z" stroke="null"/>
    <path id="svg_8" d="m2935.3563,3868.95121c-10.22174,-16.61033 -21.7212,-44.72012 -22.99892,-61.33044c-3.83315,-31.94294 -2.55544,-31.94294 91.99567,-28.10979c52.38642,1.27772 131.60491,6.38859 176.32502,10.22174c76.66305,7.66631 79.21849,8.94402 79.21849,43.4424l0,35.77609l-123.9386,8.94402c-68.99675,3.83315 -137.9935,11.49946 -153.32611,15.33261c-19.16576,3.83315 -33.22066,-2.55544 -47.27555,-24.27663z" stroke="null"/>
    <path id="svg_9" d="m5043.5903,3877.89523c-19.16576,-10.22174 -48.55327,-15.33261 -65.1636,-11.49946c-40.88696,10.22174 -70.27447,-39.60924 -39.60924,-68.99675c15.33261,-16.61033 22.99892,-16.61033 38.33153,-2.55544c15.33261,11.49946 29.3875,12.77718 54.94186,2.55544c20.44348,-7.66631 60.05273,-17.88805 89.44023,-21.7212c63.88588,-10.22174 71.55218,1.27772 57.49729,70.27447c-8.94402,39.60924 -15.33261,44.72012 -53.66414,48.55327c-24.27663,1.27772 -61.33044,-5.11087 -81.77392,-16.61033l-0.00001,0z" stroke="null"/>
    <path id="svg_10" d="m3298.22809,3865.11805c0,-20.44348 43.4424,-48.55327 56.21957,-35.77609c3.83315,3.83315 7.66631,19.16576 7.66631,31.94294c0,16.61033 -8.94402,22.99892 -31.94294,22.99892c-19.16576,0 -31.94294,-7.66631 -31.94294,-19.16576l0,-0.00001z" stroke="null"/>
    <path id="svg_11" d="m2911.07967,3678.57129c-25.55435,-15.33261 -28.10979,-53.66414 -5.11087,-74.10762c14.05489,-10.22174 34.49837,-5.11087 86.88479,22.99892c42.16468,24.27663 61.33044,40.88696 49.83099,44.72012c-45.99783,14.05489 -111.16143,16.61033 -131.60491,6.38859l0,-0.00001z" stroke="null"/>
    <path id="svg_12" d="m3448.99877,3673.46042c-5.11087,-6.38859 -74.10762,-25.55435 -201.87938,-58.77501c-86.88479,-22.99892 -287.48645,-62.60816 -314.31852,-62.60816c-15.33261,0 -35.77609,-8.94402 -44.72012,-21.7212c-10.22174,-11.49946 -54.94186,-51.1087 -100.93969,-86.88479c-45.99783,-37.05381 -149.49296,-125.21632 -229.98916,-198.04622c-204.43481,-182.71361 -210.8234,-189.1022 -325.81798,-278.54243c-140.54893,-109.88371 -150.77067,-117.55002 -162.27013,-117.55002c-5.11087,0 -10.22174,-11.49946 -10.22174,-25.55435c0,-20.44348 8.94402,-25.55435 42.16468,-25.55435c21.7212,0 58.77501,8.94402 79.21849,20.44348c21.7212,10.22174 61.33044,24.27663 89.44023,30.66522c149.49296,30.66522 319.42939,70.27447 425.47995,97.10654c65.1636,16.61033 125.21632,26.83207 132.88263,22.99892c8.94402,-6.38859 11.49946,-43.4424 6.38859,-108.60599c-10.22174,-120.10545 0,-132.88263 76.66305,-99.66197l53.66414,22.99892l-7.66631,144.38209l-7.66631,144.38209l164.82557,134.16035c90.71795,74.10762 208.26796,176.32502 263.20982,228.71145c100.93969,95.82882 112.43915,99.66197 149.49296,47.27555c19.16576,-26.83207 141.82665,-173.76959 213.37883,-256.82123c40.88696,-47.27555 43.4424,-54.94186 42.16468,-146.93752c0,-52.38642 -5.11087,-141.82665 -10.22174,-198.04622c-6.38859,-54.94186 -7.66631,-108.60599 -3.83315,-118.82773c7.66631,-21.7212 68.99675,-11.49946 114.99458,17.88805c26.83207,17.88805 29.3875,25.55435 21.7212,86.88479c-6.38859,47.27555 -3.83315,71.55218 6.38859,77.94077c7.66631,5.11087 52.38642,8.94402 97.10654,8.94402c81.77392,-1.27772 81.77392,0 81.77392,35.77609c0,29.3875 -10.22174,42.16468 -49.83099,65.1636c-44.72012,24.27663 -90.71795,80.49621 -76.66305,93.27338c2.55544,2.55544 34.49837,26.83207 70.27447,53.66414c136.71578,106.05056 205.71253,163.54785 288.76417,242.76634c61.33044,58.77501 91.99567,80.49621 104.77284,72.8299c10.22174,-5.11087 43.4424,-44.72012 75.38534,-86.88479c30.66522,-42.16468 91.99567,-116.2723 136.71578,-163.54785l80.49621,-86.88479l-7.66631,-210.8234c-3.83315,-126.49404 -2.55544,-212.10112 5.11087,-217.21199c15.33261,-8.94402 104.77284,19.16576 116.2723,38.33153c5.11087,7.66631 6.38859,43.4424 2.55544,79.21849c-10.22174,79.21849 -1.27772,86.88479 103.49512,88.16251c67.71903,0 76.66305,2.55544 80.49621,26.83207c3.83315,25.55435 -3.83315,34.49837 -102.21741,114.99458c-12.77718,8.94402 -22.99892,25.55435 -22.99892,34.49837c0,8.94402 45.99783,49.83099 103.49512,91.99567c56.21957,42.16468 121.38317,90.71795 144.38209,108.60599c24.27663,17.88805 76.66305,67.71903 116.2723,112.43915c39.60924,43.4424 77.94077,79.21849 84.32936,79.21849c6.38859,0 47.27555,-44.72012 90.71795,-98.38425c44.72012,-54.94186 109.88371,-130.32719 144.38209,-168.65872l63.88588,-67.71903l-3.83315,-215.93427l-3.83315,-215.93427l39.60924,0c21.7212,0 52.38642,6.38859 66.44131,14.05489c22.99892,12.77718 25.55435,21.7212 17.88805,81.77392c-8.94402,84.32936 6.38859,99.66197 111.16143,108.60599c45.99783,3.83315 79.21849,12.77718 83.05164,22.99892c2.55544,8.94402 -16.61033,37.05381 -43.4424,63.88588c-47.27555,47.27555 -160.99241,177.60274 -254.2658,290.04189c-28.10979,34.49837 -79.21849,94.5511 -114.99458,134.16035c-34.49837,39.60924 -89.44023,102.21741 -121.38317,139.27122l-57.49729,67.71903l-67.71903,-21.7212c-35.77609,-12.77718 -74.10762,-19.16576 -85.60708,-15.33261c-10.22174,5.11087 -21.7212,3.83315 -24.27663,-2.55544c-3.83315,-5.11087 -57.49729,-22.99892 -118.82773,-38.33153c-61.33044,-15.33261 -141.82665,-37.05381 -177.60274,-47.27555c-35.77609,-8.94402 -75.38534,-17.88805 -88.16251,-17.88805c-12.77718,0 -51.1087,-22.99892 -85.60708,-52.38642c-40.88696,-34.49837 -66.44131,-47.27555 -79.21849,-40.88696c-10.22174,5.11087 -60.05273,60.05273 -109.88371,122.66089c-51.1087,61.33044 -100.93969,111.16143 -109.88371,111.16143c-8.94402,0 -29.3875,-5.11087 -45.99783,-11.49946c-60.05273,-22.99892 -235.10003,-68.99675 -425.47995,-111.16143c-77.94077,-17.88805 -116.2723,-34.49837 -164.82557,-71.55218c-34.49837,-26.83207 -66.44131,-48.55327 -71.55218,-48.55327c-5.11087,0 -40.88696,38.33153 -80.49621,86.88479c-120.10545,148.21524 -152.04839,175.04731 -177.60274,149.49296l-0.00002,-0.00005zm-150.77067,-152.04839c0,-10.22174 -24.27663,-38.33153 -53.66414,-62.60816c-30.66522,-25.55435 -94.5511,-77.94077 -144.38209,-118.82773c-48.55327,-39.60924 -94.5511,-79.21849 -102.21741,-86.88479c-6.38859,-7.66631 -57.49729,-52.38642 -111.16143,-99.66197c-83.05164,-71.55218 -108.60599,-86.88479 -172.49187,-99.66197c-40.88696,-8.94402 -99.66197,-22.99892 -130.32719,-33.22066c-125.21632,-39.60924 -155.88154,-6.38859 -57.49729,62.60816c61.33044,42.16468 89.44023,65.1636 270.87613,227.43373c121.38317,107.32828 162.27013,131.60491 251.71036,152.04839c35.77609,7.66631 98.38425,28.10979 140.54893,44.72012c93.27338,35.77609 108.60599,37.05381 108.60599,14.05489l0.00001,-0.00001zm930.17839,-3.83315c5.11087,-17.88805 -17.88805,-39.60924 -117.55002,-118.82773c-39.60924,-31.94294 -102.21741,-84.32936 -139.27122,-117.55002c-35.77609,-34.49837 -72.8299,-61.33044 -80.49621,-61.33044c-25.55435,0 -109.88371,112.43915 -102.21741,137.9935c12.77718,38.33153 89.44023,79.21849 208.26796,111.16143c63.88588,16.61033 135.43806,39.60924 158.43698,49.83099c47.27555,20.44348 65.1636,19.16576 72.8299,-1.27772l0.00002,-0.00001zm940.40013,11.49946c8.94402,-15.33261 -29.3875,-54.94186 -132.88263,-139.27122c-52.38642,-43.4424 -114.99458,-95.82882 -136.71578,-116.2723c-66.44131,-61.33044 -81.77392,-61.33044 -136.71578,3.83315c-30.66522,37.05381 -44.72012,66.44131 -40.88696,80.49621c12.77718,38.33153 85.60708,75.38534 224.87829,114.99458c74.10762,21.7212 148.21524,44.72012 166.10328,52.38642c40.88696,15.33261 48.55327,16.61033 56.21957,3.83315l0.00001,0.00001z" stroke="null"/>
    <path id="svg_13" d="m3298.22809,3040.99022l0,-76.66305l56.21957,0c75.38534,0 99.66197,24.27663 94.5511,94.5511l-3.83315,52.38642l-72.8299,3.83315l-74.10762,3.83315l0,-77.94077z" stroke="null"/>
    <path id="svg_14" d="m3511.60693,3109.98697c-15.33261,-15.33261 -10.22174,-100.93969 6.38859,-117.55002c44.72012,-44.72012 129.04947,8.94402 122.66089,77.94077c-3.83315,38.33153 -6.38859,40.88696 -61.33044,44.72012c-31.94294,2.55544 -62.60816,0 -67.71903,-5.11087l-0.00001,0z" stroke="null"/>
    <path id="svg_15" d="m4260.34943,3095.93208c-10.22174,-3.83315 -16.61033,-30.66522 -16.61033,-68.99675c0,-40.88696 5.11087,-62.60816 16.61033,-63.88588c38.33153,-3.83315 93.27338,5.11087 106.05056,15.33261c25.55435,20.44348 30.66522,80.49621 8.94402,104.77284c-19.16576,20.44348 -79.21849,28.10979 -114.99458,12.77718z" stroke="null"/>
    <path id="svg_16" d="m4440.5076,3071.65544c-10.22174,-38.33153 11.49946,-91.99567 39.60924,-103.49512c26.83207,-8.94402 83.05164,43.4424 83.05164,79.21849c0,38.33153 -24.27663,57.49729 -72.8299,57.49729c-34.49837,0 -43.4424,-6.38859 -49.83099,-33.22066l0.00001,0z" stroke="null"/>
    <path id="svg_17" d="m5366.85284,3065.26685c-10.22174,-21.7212 -10.22174,-39.60924 0,-76.66305c11.49946,-37.05381 11.49946,-56.21957 1.27772,-76.66305c-17.88805,-33.22066 -6.38859,-88.16251 19.16576,-88.16251c10.22174,0 33.22066,6.38859 51.1087,15.33261c35.77609,16.61033 43.4424,61.33044 12.77718,86.88479c-16.61033,14.05489 -16.61033,19.16576 0,52.38642c25.55435,48.55327 24.27663,84.32936 -5.11087,100.93969c-38.33153,20.44348 -62.60816,15.33261 -79.21849,-14.05489l0,-0.00001z" stroke="null"/>
    <path id="svg_18" d="m5198.19412,3070.37772c-5.11087,-3.83315 -8.94402,-29.3875 -8.94402,-56.21957c0,-40.88696 5.11087,-51.1087 29.3875,-56.21957c70.27447,-17.88805 137.9935,53.66414 98.38425,102.21741c-15.33261,19.16576 -103.49512,26.83207 -118.82773,10.22174l0,-0.00001z" stroke="null"/>
    <path id="svg_19" d="m3127.01394,3007.76956c-3.83315,-11.49946 -7.66631,-30.66522 -7.66631,-44.72012c0,-12.77718 -20.44348,-45.99783 -44.72012,-74.10762c-24.27663,-26.83207 -44.72012,-52.38642 -44.72012,-57.49729c0,-14.05489 81.77392,-7.66631 114.99458,8.94402c33.22066,17.88805 34.49837,22.99892 19.16576,127.77176c-7.66631,61.33044 -22.99892,76.66305 -37.05381,39.60924l0.00002,0.00001z" stroke="null"/>
    <path id="svg_20" d="m3532.05041,2925.99564c-24.27663,-10.22174 -29.3875,-21.7212 -29.3875,-63.88588c0,-60.05273 16.61033,-70.27447 83.05164,-58.77501c51.1087,10.22174 70.27447,52.38642 45.99783,104.77284c-14.05489,31.94294 -48.55327,38.33153 -99.66197,17.88805z" stroke="null"/>
    <path id="svg_21" d="m4449.45163,2920.88477c-8.94402,-10.22174 -14.05489,-38.33153 -11.49946,-61.33044c3.83315,-38.33153 7.66631,-42.16468 51.1087,-45.99783c40.88696,-3.83315 51.1087,1.27772 63.88588,28.10979c21.7212,49.83099 -3.83315,97.10654 -52.38642,97.10654c-20.44348,0 -43.4424,-7.66631 -51.1087,-17.88805l0,-0.00001z" stroke="null"/>
    <path id="svg_22" d="m4298.68095,2917.05162c-40.88696,-5.11087 -45.99783,-11.49946 -61.33044,-88.16251c-11.49946,-56.21957 15.33261,-74.10762 81.77392,-56.21957c57.49729,15.33261 80.49621,44.72012 68.99675,90.71795c-8.94402,34.49837 -28.10979,63.88588 -40.88696,60.05273c-3.83315,0 -25.55435,-3.83315 -48.55327,-6.38859l0,-0.00001z" stroke="null"/>
    <path id="svg_23" d="m5203.30499,2909.38531c-25.55435,-31.94294 -30.66522,-91.99567 -8.94402,-109.88371c16.61033,-14.05489 29.3875,-14.05489 74.10762,0c44.72012,14.05489 56.21957,24.27663 58.77501,51.1087c2.55544,19.16576 -5.11087,43.4424 -16.61033,54.94186c-25.55435,24.27663 -86.88479,26.83207 -107.32828,3.83315z" stroke="null"/>
    <path id="svg_24" d="m3307.17212,2904.27444c-3.83315,-5.11087 -10.22174,-37.05381 -15.33261,-68.99675c-11.49946,-79.21849 5.11087,-91.99567 89.44023,-70.27447l63.88588,15.33261l0,63.88588l0,62.60816l-66.44131,3.83315c-35.77609,2.55544 -67.71903,-1.27772 -71.55218,-6.38859l-0.00001,0.00001z" stroke="null"/>
    <path id="svg_25" d="m4032.9157,2874.88694c-31.94294,-33.22066 -33.22066,-38.33153 -14.05489,-45.99783c35.77609,-14.05489 86.88479,16.61033 81.77392,48.55327c-6.38859,40.88696 -26.83207,40.88696 -67.71903,-2.55544z" stroke="null"/>
    <path id="svg_26" d="m4961.81637,2874.88694c-49.83099,-47.27555 -26.83207,-67.71903 42.16468,-35.77609c34.49837,15.33261 38.33153,52.38642 6.38859,58.77501c-11.49946,1.27772 -33.22066,-8.94402 -48.55327,-22.99892z" stroke="null"/>
    <path id="svg_27" d="m2866.35956,2483.90536c-48.55327,-33.22066 -28.10979,-83.05164 22.99892,-56.21957c25.55435,14.05489 34.49837,56.21957 15.33261,68.99675c-6.38859,3.83315 -22.99892,-2.55544 -38.33153,-12.77718z" stroke="null"/>
    <path id="svg_28" d="m4831.48918,2480.07221c-7.66631,-15.33261 -10.22174,-39.60924 -6.38859,-52.38642c6.38859,-17.88805 1.27772,-28.10979 -15.33261,-33.22066c-134.16035,-42.16468 -171.21415,-85.60708 -178.88046,-208.26796c-8.94402,-120.10545 6.38859,-166.10328 72.8299,-215.93427c53.66414,-42.16468 60.05273,-43.4424 153.32611,-38.33153c157.15926,6.38859 217.21199,70.27447 217.21199,227.43373c0,127.77176 -49.83099,201.87938 -148.21524,223.60058c-70.27447,15.33261 -70.27447,15.33261 -53.66414,51.1087c11.49946,26.83207 11.49946,37.05381 -5.11087,53.66414c-19.16576,17.88805 -21.7212,16.61033 -35.77609,-7.66631zm67.71903,-194.21307c49.83099,-25.55435 72.8299,-65.1636 72.8299,-129.04947c0,-49.83099 -6.38859,-66.44131 -39.60924,-98.38425c-108.60599,-108.60599 -256.82123,35.77609 -182.71361,178.88046c28.10979,56.21957 93.27338,76.66305 149.49296,48.55327l-0.00001,-0.00001z" stroke="null"/>
    <path id="svg_29" d="m2774.36389,2389.35426c-81.77392,-6.38859 -83.05164,-6.38859 -86.88479,-47.27555c-5.11087,-53.66414 22.99892,-67.71903 106.05056,-53.66414c154.60383,25.55435 154.60383,5.11087 7.66631,-144.38209c-107.32828,-108.60599 -116.2723,-122.66089 -113.71686,-163.54785l3.83315,-44.72012l185.26905,0l185.26905,0l3.83315,42.16468c5.11087,53.66414 -29.3875,68.99675 -123.9386,51.1087c-71.55218,-12.77718 -103.49512,-7.66631 -103.49512,16.61033c0,7.66631 52.38642,67.71903 114.99458,132.88263c81.77392,84.32936 114.99458,127.77176 114.99458,150.77067c0,48.55327 -29.3875,65.1636 -102.21741,54.94186c-35.77609,-5.11087 -74.10762,-3.83315 -86.88479,1.27772c-11.49946,6.38859 -58.77501,7.66631 -104.77284,3.83315l-0.00002,0.00001z" stroke="null"/>
    <path id="svg_30" d="m28.54883,2365.07762c-19.16576,-34.49837 -17.88805,-47.27555 6.38859,-71.55218c12.77718,-12.77718 33.22066,-17.88805 54.94186,-14.05489c17.88805,3.83315 60.05273,10.22174 94.5511,14.05489c52.38642,6.38859 60.05273,5.11087 60.05273,-15.33261c-1.27772,-12.77718 -49.83099,-74.10762 -109.88371,-137.9935c-97.10654,-103.49512 -107.32828,-118.82773 -104.77284,-159.7147l3.83315,-44.72012l178.88046,0l178.88046,0l3.83315,35.77609c5.11087,42.16468 -17.88805,75.38534 -47.27555,67.71903c-11.49946,-3.83315 -51.1087,-10.22174 -86.88479,-14.05489c-106.05056,-14.05489 -102.21741,11.49946 26.83207,149.49296c99.66197,107.32828 109.88371,122.66089 107.32828,163.54785l-3.83315,44.72012l-175.04731,3.83315c-162.27013,2.55544 -176.32502,1.27772 -187.82448,-21.7212l-0.00002,0z" stroke="null"/>
    <path id="svg_31" d="m531.96955,2374.02165c-3.83315,-8.94402 -5.11087,-111.16143 -2.55544,-227.43373l2.55544,-210.8234l43.4424,-3.83315c22.99892,-2.55544 48.55327,1.27772 54.94186,7.66631c7.66631,7.66631 7.66631,53.66414 -1.27772,127.77176c-7.66631,62.60816 -10.22174,123.9386 -6.38859,135.43806c14.05489,37.05381 51.1087,0 100.93969,-103.49512c79.21849,-160.99241 86.88479,-169.93644 159.7147,-169.93644c38.33153,0 62.60816,6.38859 66.44131,16.61033c2.55544,7.66631 3.83315,109.88371 3.83315,226.15601l0,210.8234l-54.94186,3.83315l-54.94186,3.83315l2.55544,-141.82665c3.83315,-163.54785 -10.22174,-196.76851 -49.83099,-120.10545c-134.16035,260.65438 -132.88263,260.65438 -209.54568,260.65438c-28.10979,0 -52.38642,-6.38859 -54.94186,-15.33261l0.00001,0z" stroke="null"/>
    <path id="svg_32" d="m1244.93596,2374.02165c-5.11087,-8.94402 -30.66522,-76.66305 -56.21957,-150.77067c-24.27663,-74.10762 -58.77501,-158.43698 -72.8299,-187.82448c-33.22066,-63.88588 -35.77609,-100.93969 -7.66631,-111.16143c37.05381,-14.05489 77.94077,6.38859 99.66197,51.1087c20.44348,44.72012 20.44348,44.72012 99.66197,40.88696c72.8299,-3.83315 80.49621,-6.38859 99.66197,-42.16468c15.33261,-28.10979 31.94294,-39.60924 63.88588,-42.16468c63.88588,-6.38859 68.99675,10.22174 28.10979,100.93969c-20.44348,44.72012 -56.21957,136.71578 -79.21849,203.15709c-22.99892,66.44131 -48.55327,129.04947 -54.94186,137.9935c-15.33261,20.44348 -107.32828,20.44348 -120.10545,0zm95.82882,-192.93535c24.27663,-49.83099 8.94402,-85.60708 -35.77609,-85.60708c-44.72012,0 -56.21957,28.10979 -37.05381,85.60708c16.61033,52.38642 48.55327,52.38642 72.8299,0z" stroke="null"/>
    <path id="svg_33" d="m1904.23822,2374.02165c-1.27772,-8.94402 -1.27772,-83.05164 1.27772,-163.54785c2.55544,-132.88263 0,-149.49296 -22.99892,-169.93644c-35.77609,-33.22066 -67.71903,-22.99892 -103.49512,33.22066c-22.99892,35.77609 -39.60924,47.27555 -65.1636,47.27555c-79.21849,0 -80.49621,-77.94077 -5.11087,-149.49296c39.60924,-37.05381 53.66414,-42.16468 116.2723,-42.16468c91.99567,0 152.04839,29.3875 168.65872,80.49621c6.38859,22.99892 14.05489,116.2723 16.61033,206.99025l3.83315,166.10328l-53.66414,3.83315c-38.33153,2.55544 -54.94186,-1.27772 -56.21957,-12.77718l0,0.00001z" stroke="null"/>
    <path id="svg_34" d="m2154.67087,2374.02165c-3.83315,-8.94402 -5.11087,-112.43915 -3.83315,-227.43373l3.83315,-210.8234l108.60599,-3.83315c132.88263,-5.11087 208.26796,14.05489 249.15493,63.88588c89.44023,107.32828 66.44131,297.70819 -44.72012,361.59407c-57.49729,33.22066 -301.54135,45.99783 -313.04081,16.61033l0.00001,0zm198.04622,-88.16251c77.94077,-16.61033 102.21741,-47.27555 102.21741,-126.49404c-1.27772,-79.21849 -30.66522,-114.99458 -108.60599,-129.04947c-34.49837,-6.38859 -67.71903,-6.38859 -72.8299,-1.27772c-15.33261,15.33261 -20.44348,221.04514 -7.66631,249.15493c12.77718,25.55435 6.38859,25.55435 86.88479,7.66631l0,-0.00001z" stroke="null"/>
    <path id="svg_35" d="m3448.99877,2363.79991c-80.49621,-43.4424 -93.27338,-143.10437 -26.83207,-210.8234c29.3875,-28.10979 43.4424,-31.94294 126.49404,-31.94294c67.71903,0 98.38425,-5.11087 112.43915,-20.44348c44.72012,-44.72012 8.94402,-81.77392 -79.21849,-81.77392c-35.77609,0 -57.49729,8.94402 -79.21849,31.94294c-34.49837,35.77609 -111.16143,44.72012 -122.66089,14.05489c-11.49946,-29.3875 33.22066,-91.99567 80.49621,-114.99458c56.21957,-26.83207 196.76851,-26.83207 252.98808,0c43.4424,20.44348 83.05164,83.05164 83.05164,131.60491c0,14.05489 -16.61033,44.72012 -37.05381,67.71903c-34.49837,39.60924 -43.4424,42.16468 -136.71578,45.99783c-106.05056,5.11087 -132.88263,16.61033 -132.88263,54.94186c0,56.21957 118.82773,68.99675 163.54785,17.88805c38.33153,-44.72012 117.55002,-45.99783 117.55002,-2.55544c0,38.33153 -31.94294,81.77392 -76.66305,104.77284c-53.66414,28.10979 -186.54677,24.27663 -245.32177,-6.38859l-0.00001,0z" stroke="null"/>
    <path id="svg_36" d="m3915.36568,2368.91078c-3.83315,-10.22174 -1.27772,-31.94294 7.66631,-47.27555c22.99892,-45.99783 49.83099,-131.60491 77.94077,-247.87721c14.05489,-61.33044 31.94294,-117.55002 39.60924,-127.77176c19.16576,-21.7212 93.27338,-21.7212 112.43915,1.27772c7.66631,8.94402 17.88805,44.72012 21.7212,79.21849c8.94402,75.38534 42.16468,160.99241 61.33044,154.60383c7.66631,-2.55544 24.27663,-47.27555 35.77609,-99.66197c12.77718,-52.38642 25.55435,-107.32828 29.3875,-122.66089c5.11087,-24.27663 15.33261,-29.3875 57.49729,-29.3875c43.4424,0 53.66414,5.11087 70.27447,38.33153c10.22174,20.44348 19.16576,49.83099 19.16576,65.1636c0,33.22066 30.66522,145.6598 65.1636,235.10003c12.77718,35.77609 24.27663,76.66305 24.27663,93.27338c0,24.27663 -6.38859,28.10979 -51.1087,28.10979c-58.77501,0 -68.99675,-14.05489 -80.49621,-108.60599c-11.49946,-93.27338 -33.22066,-159.7147 -52.38642,-159.7147c-10.22174,0 -24.27663,39.60924 -38.33153,112.43915c-28.10979,140.54893 -31.94294,148.21524 -86.88479,153.32611c-53.66414,5.11087 -67.71903,-19.16576 -80.49621,-141.82665c-6.38859,-58.77501 -16.61033,-90.71795 -34.49837,-107.32828c-31.94294,-29.3875 -43.4424,-11.49946 -53.66414,90.71795c-5.11087,42.16468 -15.33261,97.10654 -21.7212,120.10545c-12.77718,37.05381 -17.88805,40.88696 -63.88588,40.88696c-34.49837,0 -53.66414,-6.38859 -58.77501,-20.44348l0.00001,-0.00001z" stroke="null"/>
    <path id="svg_37" d="m5452.45992,2377.8548c-5.11087,-6.38859 -6.38859,-81.77392 -5.11087,-167.381c3.83315,-143.10437 1.27772,-157.15926 -21.7212,-173.76959c-31.94294,-22.99892 -70.27447,-17.88805 -84.32936,11.49946c-6.38859,11.49946 -16.61033,31.94294 -22.99892,44.72012c-6.38859,14.05489 -25.55435,21.7212 -53.66414,21.7212c-42.16468,0 -43.4424,-2.55544 -47.27555,-52.38642c-3.83315,-48.55327 1.27772,-57.49729 44.72012,-93.27338c42.16468,-34.49837 57.49729,-39.60924 127.77176,-39.60924c74.10762,0 83.05164,2.55544 125.21632,44.72012l44.72012,45.99783l2.55544,132.88263c5.11087,259.37667 11.49946,229.98916 -49.83099,233.82232c-28.10979,2.55544 -56.21957,-1.27772 -60.05273,-8.94402l0,-0.00003z" stroke="null"/>
    <path id="svg_38" d="m5897.10564,2372.74393c-2.55544,-8.94402 -3.83315,-111.16143 -2.55544,-226.15601l3.83315,-210.8234l111.16143,-3.83315c134.16035,-3.83315 203.15709,11.49946 245.32177,57.49729c58.77501,63.88588 71.55218,215.93427 24.27663,305.3745c-19.16576,38.33153 -38.33153,53.66414 -88.16251,71.55218c-77.94077,26.83207 -283.6533,31.94294 -293.87504,6.38859l0.00001,0zm269.59841,-118.82773c57.49729,-61.33044 31.94294,-200.60166 -38.33153,-215.93427c-17.88805,-3.83315 -47.27555,-8.94402 -65.1636,-12.77718c-57.49729,-12.77718 -68.99675,10.22174 -68.99675,134.16035c0,60.05273 3.83315,114.99458 8.94402,118.82773c3.83315,5.11087 35.77609,8.94402 70.27447,8.94402c51.1087,0 67.71903,-6.38859 93.27338,-33.22066l0.00001,0.00001z" stroke="null"/>
    <path id="svg_39" d="m6601.12802,2374.02165c-3.83315,-8.94402 -17.88805,-48.55327 -30.66522,-86.88479c-54.94186,-152.04839 -67.71903,-186.54677 -98.38425,-249.15493c-37.05381,-77.94077 -38.33153,-104.77284 -7.66631,-111.16143c43.4424,-8.94402 81.77392,6.38859 95.82882,39.60924c20.44348,45.99783 31.94294,52.38642 108.60599,52.38642c62.60816,0 68.99675,-2.55544 93.27338,-43.4424c28.10979,-47.27555 66.44131,-63.88588 103.49512,-44.72012c28.10979,15.33261 24.27663,31.94294 -22.99892,135.43806c-39.60924,85.60708 -94.5511,237.65547 -94.5511,261.9321c0,31.94294 -44.72012,61.33044 -94.5511,61.33044c-25.55435,0 -49.83099,-7.66631 -52.38642,-15.33261l0.00001,0.00002zm99.66197,-198.04622c16.61033,-56.21957 3.83315,-80.49621 -40.88696,-80.49621c-47.27555,0 -57.49729,26.83207 -33.22066,84.32936c22.99892,56.21957 57.49729,53.66414 74.10762,-3.83315z" stroke="null"/>
    <path id="svg_40" d="m7073.88352,2365.07762c-75.38534,-34.49837 -95.82882,-79.21849 -95.82882,-209.54568c0,-99.66197 2.55544,-112.43915 33.22066,-149.49296c19.16576,-21.7212 49.83099,-47.27555 70.27447,-57.49729c42.16468,-21.7212 181.4359,-25.55435 237.65547,-6.38859c47.27555,16.61033 95.82882,80.49621 90.71795,118.82773c-5.11087,39.60924 -75.38534,45.99783 -111.16143,10.22174c-103.49512,-103.49512 -218.4897,-49.83099 -218.4897,100.93969c0,121.38317 127.77176,166.10328 218.4897,75.38534c28.10979,-28.10979 90.71795,-31.94294 111.16143,-7.66631c21.7212,25.55435 -25.55435,91.99567 -85.60708,123.9386c-66.44131,33.22066 -180.15818,34.49837 -250.43264,1.27772l-0.00001,0.00001z" stroke="null"/>
    <path id="svg_41" d="m7553.02761,2384.24339c-3.83315,-2.55544 -6.38859,-104.77284 -6.38859,-227.43373l0,-221.04514l57.49729,0l57.49729,0l0,89.44023l0,89.44023l95.82882,0l95.82882,0l3.83315,-91.99567l3.83315,-93.27338l57.49729,0l56.21957,0l-2.55544,227.43373l-3.83315,226.15601l-51.1087,0l-51.1087,0l-3.83315,-93.27338l-3.83315,-93.27338l-98.38425,3.83315l-98.38425,3.83315l0,89.44023l0,89.44023l-51.1087,3.83315c-29.3875,2.55544 -54.94186,1.27772 -57.49729,-2.55544l-0.00001,0.00001z" stroke="null"/>
   </g>
  </g>
 </g>

</svg>